<svg width="20" height="34" viewBox="0 0 20 34" fill="none" xmlns="http://www.w3.org/2000/svg">
<path id="Vector" d="M19.1563 0.837286C18.8911 0.571979 18.5756 0.361399 18.228 0.217693C17.8804 0.0739875 17.5076 0 17.131 0C16.7545 0 16.3817 0.0739875 16.0341 0.217693C15.6865 0.361399 15.371 0.571979 15.1058 0.837286L0.84374 14.9903C0.576388 15.2534 0.364184 15.5665 0.219371 15.9114C0.0745572 16.2564 0 16.6263 0 17C0 17.3737 0.0745572 17.7436 0.219371 18.0886C0.364184 18.4335 0.576388 18.7466 0.84374 19.0097L15.1058 33.1627C15.371 33.428 15.6865 33.6386 16.0341 33.7823C16.3817 33.926 16.7545 34 17.131 34C17.5076 34 17.8804 33.926 18.228 33.7823C18.5756 33.6386 18.8911 33.428 19.1563 33.1627C19.4236 32.8996 19.6358 32.5865 19.7806 32.2416C19.9254 31.8966 20 31.5267 20 31.153C20 30.7793 19.9254 30.4093 19.7806 30.0644C19.6358 29.7195 19.4236 29.4064 19.1563 29.1433L6.89086 17L19.1563 4.85674C19.4236 4.59359 19.6358 4.28053 19.7806 3.93559C19.9254 3.59066 20 3.22068 20 2.84701C20 2.47334 19.9254 2.10336 19.7806 1.75843C19.6358 1.41349 19.4236 1.10043 19.1563 0.837286Z" fill="white"/>
</svg>
