<svg width="41" height="39" viewBox="0 0 41 39" fill="none" xmlns="http://www.w3.org/2000/svg">
<g id="&#240;&#159;&#166;&#134; icon &#34;Camera Add&#34;">
<g id="Group">
<path id="Vector" d="M14.9022 0C13.5676 0 12.3471 0.715629 11.7478 1.84951L10.3603 4.47455H6.38399C3.13436 4.47455 0.5 6.97944 0.5 10.0694V27.9743C0.5 31.0643 3.13436 33.5692 6.38399 33.5692H18.3756C17.9945 32.8602 17.6835 32.1114 17.4514 31.3313H6.38399C4.4342 31.3313 2.8536 29.8283 2.8536 27.9743V10.0694C2.8536 8.21544 4.4342 6.7125 6.38399 6.7125H11.086C11.5309 6.7125 11.9377 6.47396 12.1375 6.09599L13.8507 2.85446C14.0505 2.47649 14.4573 2.23795 14.9022 2.23795H23.7617C24.2075 2.23795 24.6149 2.47745 24.8142 2.85658L26.5161 6.09384C26.7155 6.47299 27.1229 6.7125 27.5686 6.7125H32.2735C34.2234 6.7125 35.8039 8.21544 35.8039 10.0694V17.0131C36.6462 17.4235 37.4349 17.919 38.1575 18.4877V10.0694C38.1575 6.97946 35.5233 4.47455 32.2735 4.47455H28.2961L26.9195 1.85593C26.3215 0.718515 25.099 0 23.7617 0H14.9022Z" fill="#FF9E00"/>
<path id="Vector_2" d="M19.3177 8.9519C23.7334 8.9519 27.4389 11.8426 28.4559 15.7424C27.6625 15.8266 26.8908 15.9791 26.1473 16.1934C25.352 13.3138 22.5957 11.1899 19.3177 11.1899C15.4181 11.1899 12.2569 14.1958 12.2569 17.9036C12.2569 21.0206 14.4907 23.6415 17.5191 24.3977C17.2937 25.1047 17.1334 25.8385 17.0447 26.5929C12.9434 25.6261 9.90332 22.1025 9.90332 17.9036C9.90332 12.9598 14.1183 8.9519 19.3177 8.9519Z" fill="#FF9E00"/>
<path id="Vector_3" d="M40.4999 27.9743C40.4999 33.5363 35.7581 38.0451 29.9087 38.0451C24.0596 38.0451 19.3176 33.5363 19.3176 27.9743C19.3176 22.4124 24.0596 17.9036 29.9087 17.9036C35.7581 17.9036 40.4999 22.4124 40.4999 27.9743ZM31.0855 23.4984C31.0855 22.8805 30.5588 22.3795 29.9087 22.3795C29.2589 22.3795 28.7319 22.8805 28.7319 23.4984V26.8554H25.2015C24.5517 26.8554 24.0247 27.3564 24.0247 27.9743C24.0247 28.5922 24.5517 29.0933 25.2015 29.0933H28.7319V32.4502C28.7319 33.0681 29.2589 33.5692 29.9087 33.5692C30.5588 33.5692 31.0855 33.0681 31.0855 32.4502V29.0933H34.6159C35.266 29.0933 35.7927 28.5922 35.7927 27.9743C35.7927 27.3564 35.266 26.8554 34.6159 26.8554H31.0855V23.4984Z" fill="#FF9E00"/>
</g>
</g>
</svg>
