<svg width="32" height="32" viewBox="0 0 32 32" fill="none" xmlns="http://www.w3.org/2000/svg">
<g id="pepicons-pencil:gear-circle-filled" clip-path="url(#clip0_1020_1693)">
<g id="Group">
<g id="Mask group">
<mask id="mask0_1020_1693" style="mask-type:luminance" maskUnits="userSpaceOnUse" x="0" y="0" width="32" height="32">
<g id="Group_2">
<path id="Vector" d="M0 0H32V32H0V0Z" fill="white"/>
<g id="Group_3">
<path id="Vector_2" fill-rule="evenodd" clip-rule="evenodd" d="M13.8238 18.1758C14.1093 18.4619 14.4485 18.6887 14.8219 18.8433C15.1953 18.9979 15.5956 19.0772 15.9998 19.0767C16.8269 19.0767 17.6022 18.7481 18.1758 18.1758C18.4619 17.8903 18.6887 17.5511 18.8433 17.1777C18.9979 16.8042 19.0772 16.4039 19.0767 15.9998C19.0767 15.1727 18.7481 14.3973 18.1758 13.8238C17.8903 13.5377 17.5511 13.3108 17.1777 13.1562C16.8042 13.0016 16.4039 12.9223 15.9998 12.9229C15.1727 12.9229 14.3973 13.2515 13.8238 13.8238C13.5377 14.1093 13.3108 14.4485 13.1562 14.8219C13.0016 15.1953 12.9223 15.5956 12.9229 15.9998C12.9229 16.8269 13.2515 17.6022 13.8238 18.1758ZM17.3056 17.3056C16.961 17.6502 16.497 17.8459 15.9998 17.8459C15.5025 17.8459 15.0398 17.649 14.6952 17.3044C14.3505 16.9598 14.1536 16.497 14.1536 15.9998C14.1536 15.5025 14.3505 15.0398 14.6952 14.6952C15.0398 14.3505 15.5025 14.1536 15.9998 14.1536C16.497 14.1536 16.9598 14.3505 17.3044 14.6952C17.649 15.0398 17.8459 15.5025 17.8459 15.9998C17.8459 16.497 17.649 16.9598 17.3044 17.3044L17.3056 17.3056Z" fill="black"/>
<path id="Vector_3" fill-rule="evenodd" clip-rule="evenodd" d="M21.1888 8.33589L19.6257 9.21466C19.1686 8.96958 18.6878 8.77163 18.1907 8.62389L17.6122 6.88358C17.5716 6.76086 17.4934 6.65404 17.3887 6.57826C17.284 6.50249 17.1581 6.46161 17.0288 6.46143H14.843C14.7088 6.46154 14.5784 6.50549 14.4715 6.58659C14.3646 6.66769 14.2872 6.78148 14.251 6.91066L13.7685 8.63743C13.2719 8.7877 12.7919 8.98812 12.3359 9.23558L10.6953 8.4122C10.5796 8.35424 10.4486 8.33423 10.3209 8.355C10.1932 8.37577 10.0752 8.43627 9.98389 8.52789L8.43681 10.0737C8.34181 10.1688 8.28052 10.2922 8.2623 10.4254C8.24408 10.5585 8.26992 10.6939 8.33589 10.811L9.21466 12.374C8.96973 12.8294 8.77158 13.3094 8.62389 13.8091L6.88358 14.3876C6.76086 14.4282 6.65404 14.5064 6.57826 14.6111C6.50249 14.7158 6.46161 14.8417 6.46143 14.971V17.158C6.46154 17.2922 6.50549 17.4226 6.58659 17.5295C6.66769 17.6364 6.78148 17.7138 6.91066 17.75L8.63743 18.2325C8.78758 18.731 8.9882 19.2097 9.23558 19.6651L8.4122 21.3057C8.35424 21.4214 8.33423 21.5524 8.355 21.6801C8.37577 21.8078 8.43627 21.9258 8.52789 22.0171L10.0737 23.563C10.1688 23.658 10.2922 23.7193 10.4254 23.7375C10.5585 23.7557 10.6939 23.7299 10.811 23.6639L12.374 22.7851C12.8294 23.03 13.3094 23.2282 13.8091 23.3759L14.3876 25.1174C14.4284 25.2399 14.5067 25.3465 14.6114 25.422C14.7161 25.4976 14.8419 25.5383 14.971 25.5383H17.158C17.2922 25.5382 17.4226 25.4943 17.5295 25.4132C17.6364 25.3321 17.7138 25.2183 17.75 25.0891L18.2325 23.3624C18.7291 23.2121 19.2091 23.0117 19.6651 22.7642L21.3057 23.5876C21.4213 23.6457 21.5522 23.6659 21.6799 23.6454C21.8076 23.6248 21.9256 23.5645 22.0171 23.4731L23.563 21.926C23.658 21.831 23.7193 21.7075 23.7375 21.5744C23.7557 21.4413 23.7299 21.3059 23.6639 21.1888L22.7851 19.6257C23.03 19.1703 23.2282 18.6903 23.3759 18.1907L25.1174 17.6122C25.2399 17.5714 25.3465 17.4931 25.422 17.3884C25.4976 17.2837 25.5383 17.1579 25.5383 17.0288V14.843C25.5382 14.7088 25.4943 14.5784 25.4132 14.4715C25.3321 14.3646 25.2183 14.2872 25.0891 14.251L23.3624 13.7685C23.2121 13.2719 23.0117 12.7919 22.7642 12.3359L23.5876 10.6953C23.6457 10.5797 23.6659 10.4488 23.6454 10.3211C23.6248 10.1934 23.5645 10.0754 23.4731 9.98389L21.926 8.43804C21.831 8.34304 21.7075 8.28175 21.5744 8.26353C21.4413 8.24531 21.3059 8.27115 21.1888 8.33712V8.33589ZM19.9285 10.4577L21.3857 9.63681L22.2879 10.539L21.5162 12.0774C21.4697 12.1703 21.4475 12.2733 21.4516 12.377C21.4557 12.4808 21.486 12.5818 21.5396 12.6707C21.8657 13.2122 22.1107 13.8005 22.2657 14.4159C22.2921 14.5212 22.3458 14.6176 22.4215 14.6954C22.4971 14.7732 22.592 14.8297 22.6965 14.859L24.3076 15.3094V16.5857L22.6744 17.1273C22.576 17.1601 22.4875 17.2173 22.4172 17.2934C22.3468 17.3696 22.2968 17.4623 22.2719 17.563C22.1191 18.1779 21.876 18.7669 21.5507 19.3107C21.4949 19.4037 21.4647 19.5099 21.4632 19.6184C21.4617 19.7269 21.4889 19.8339 21.542 19.9285L22.363 21.3857L21.4608 22.2879L19.9223 21.5162C19.8295 21.4697 19.7264 21.4475 19.6227 21.4516C19.519 21.4557 19.418 21.486 19.3291 21.5396C18.7876 21.8657 18.1993 22.1107 17.5839 22.2657C17.4786 22.2921 17.3822 22.3458 17.3044 22.4215C17.2265 22.4971 17.1701 22.592 17.1408 22.6965L16.6903 24.3076H15.4153L14.8737 22.6744C14.8408 22.5758 14.7834 22.4873 14.707 22.4169C14.6307 22.3465 14.5377 22.2966 14.4368 22.2719C13.8218 22.119 13.2329 21.876 12.6891 21.5507C12.596 21.4949 12.4899 21.4647 12.3814 21.4632C12.2728 21.4617 12.1659 21.4889 12.0713 21.542L10.614 22.363L9.71189 21.4608L10.4836 19.9223C10.53 19.8295 10.5522 19.7264 10.5482 19.6227C10.5441 19.519 10.5138 19.418 10.4602 19.3291C10.1334 18.7864 9.88865 18.1983 9.73404 17.5839C9.70769 17.4786 9.65396 17.3822 9.57831 17.3044C9.50265 17.2265 9.40777 17.1701 9.30327 17.1408L7.6922 16.6903V15.4153L9.32543 14.8737C9.42393 14.8408 9.5125 14.7834 9.58287 14.707C9.65324 14.6307 9.70313 14.5377 9.72789 14.4368C9.88173 13.8214 10.1254 13.2319 10.4491 12.6891C10.5049 12.596 10.5351 12.4899 10.5366 12.3814C10.5381 12.2728 10.5109 12.1659 10.4577 12.0713L9.63681 10.614L10.539 9.71189L12.0774 10.4836C12.1703 10.53 12.2733 10.5522 12.377 10.5482C12.4808 10.5441 12.5818 10.5138 12.6707 10.4602C13.2122 10.134 13.8005 9.88912 14.4159 9.73404C14.5212 9.70769 14.6176 9.65396 14.6954 9.57831C14.7732 9.50265 14.8297 9.40777 14.859 9.30327L15.3094 7.6922H16.5857L17.1273 9.32543C17.1601 9.42378 17.2173 9.51225 17.2934 9.58261C17.3696 9.65297 17.4623 9.70294 17.563 9.72789C18.1783 9.88173 18.7679 10.1254 19.3107 10.4491C19.4037 10.5049 19.5099 10.5351 19.6184 10.5366C19.7269 10.5381 19.8339 10.5109 19.9285 10.4577Z" fill="black"/>
</g>
</g>
</mask>
<g mask="url(#mask0_1020_1693)">
<path id="Vector_4" d="M16 32C24.8366 32 32 24.8366 32 16C32 7.16344 24.8366 0 16 0C7.16344 0 0 7.16344 0 16C0 24.8366 7.16344 32 16 32Z" fill="#240046"/>
</g>
</g>
</g>
</g>
<defs>
<clipPath id="clip0_1020_1693">
<rect width="32" height="32" fill="white"/>
</clipPath>
</defs>
</svg>
