<svg width="32" height="32" viewBox="0 0 32 32" fill="none" xmlns="http://www.w3.org/2000/svg">
<path id="Vector" d="M16 0C12.8355 0 9.74207 0.938383 7.11088 2.69649C4.4797 4.45459 2.42894 6.95344 1.21793 9.87706C0.00693255 12.8007 -0.309921 16.0177 0.307443 19.1214C0.924806 22.2251 2.44866 25.0761 4.6863 27.3137C6.92394 29.5513 9.77486 31.0752 12.8786 31.6926C15.9823 32.3099 19.1993 31.9931 22.1229 30.7821C25.0466 29.5711 27.5454 27.5203 29.3035 24.8891C31.0616 22.2579 32 19.1645 32 16C31.9955 11.7579 30.3084 7.69085 27.3088 4.69124C24.3092 1.69163 20.2421 0.00447972 16 0ZM21.7938 20.0523C21.9082 20.1667 21.9989 20.3024 22.0608 20.4518C22.1227 20.6012 22.1545 20.7614 22.1545 20.9231C22.1545 21.0848 22.1227 21.2449 22.0608 21.3943C21.9989 21.5437 21.9082 21.6795 21.7938 21.7938C21.6795 21.9082 21.5437 21.9989 21.3943 22.0608C21.2449 22.1227 21.0848 22.1545 20.9231 22.1545C20.7614 22.1545 20.6012 22.1227 20.4518 22.0608C20.3024 21.9989 20.1667 21.9082 20.0523 21.7938L16 17.74L11.9477 21.7938C11.8333 21.9082 11.6976 21.9989 11.5482 22.0608C11.3988 22.1227 11.2386 22.1545 11.0769 22.1545C10.9152 22.1545 10.7551 22.1227 10.6057 22.0608C10.4563 21.9989 10.3205 21.9082 10.2062 21.7938C10.0918 21.6795 10.0011 21.5437 9.93921 21.3943C9.87733 21.2449 9.84547 21.0848 9.84547 20.9231C9.84547 20.7614 9.87733 20.6012 9.93921 20.4518C10.0011 20.3024 10.0918 20.1667 10.2062 20.0523L14.26 16L10.2062 11.9477C9.97522 11.7167 9.84547 11.4035 9.84547 11.0769C9.84547 10.7503 9.97522 10.4371 10.2062 10.2062C10.4371 9.97521 10.7503 9.84547 11.0769 9.84547C11.4035 9.84547 11.7168 9.97521 11.9477 10.2062L16 14.26L20.0523 10.2062C20.1667 10.0918 20.3024 10.0011 20.4518 9.93921C20.6012 9.87732 20.7614 9.84547 20.9231 9.84547C21.0848 9.84547 21.2449 9.87732 21.3943 9.93921C21.5437 10.0011 21.6795 10.0918 21.7938 10.2062C21.9082 10.3205 21.9989 10.4563 22.0608 10.6057C22.1227 10.7551 22.1545 10.9152 22.1545 11.0769C22.1545 11.2386 22.1227 11.3988 22.0608 11.5482C21.9989 11.6976 21.9082 11.8333 21.7938 11.9477L17.74 16L21.7938 20.0523Z" fill="#240046"/>
</svg>
