<svg width="24" height="25" viewBox="0 0 24 25" fill="none" xmlns="http://www.w3.org/2000/svg">
<g id="&#240;&#159;&#166;&#134; icon &#34;Cart&#34;">
<g id="Group">
<path id="Vector" d="M1.02019 0C0.456761 0 0 0.456761 0 1.02019C0 1.58362 0.456761 2.04039 1.02019 2.04039H1.52152C1.97701 2.04039 2.37731 2.34234 2.50245 2.78031L5.7376 14.1033C6.11299 15.4172 7.31392 16.3231 8.68041 16.3231H18.0023C19.2537 16.3231 20.3792 15.5611 20.844 14.3992L23.8521 6.87893C24.3881 5.53869 23.401 4.08077 21.9576 4.08077H4.99605L4.46432 2.21978C4.08893 0.90587 2.888 0 1.52152 0H1.02019Z" fill="#FF8500"/>
<path id="Vector_2" d="M9.18167 24.4847C10.872 24.4847 12.2422 23.1144 12.2422 21.4241C12.2422 19.7338 10.872 18.3635 9.18167 18.3635C7.49136 18.3635 6.12109 19.7338 6.12109 21.4241C6.12109 23.1144 7.49136 24.4847 9.18167 24.4847Z" fill="#FF8500"/>
<path id="Vector_3" d="M17.3433 24.4847C19.0335 24.4847 20.4039 23.1144 20.4039 21.4241C20.4039 19.7338 19.0335 18.3635 17.3433 18.3635C15.653 18.3635 14.2827 19.7338 14.2827 21.4241C14.2827 23.1144 15.653 24.4847 17.3433 24.4847Z" fill="#FF8500"/>
</g>
</g>
</svg>
