<svg width="28" height="28" viewBox="0 0 28 28" fill="none" xmlns="http://www.w3.org/2000/svg">
<path id="Vector" d="M3.11111 28C2.25556 28 1.52289 27.6951 0.913113 27.0853C0.303336 26.4756 -0.0010344 25.7434 2.64101e-06 24.8889V3.11111C2.64101e-06 2.25556 0.304892 1.52289 0.914669 0.913113C1.52445 0.303336 2.25659 -0.0010344 3.11111 2.64101e-06H24.8889C25.7444 2.64101e-06 26.4771 0.304892 27.0869 0.914669C27.6967 1.52445 28.001 2.25659 28 3.11111V24.8889C28 25.7444 27.6951 26.4771 27.0853 27.0869C26.4756 27.6967 25.7434 28.001 24.8889 28H3.11111ZM4.66667 21.7778H23.3333L17.5 14L12.8333 20.2222L9.33333 15.5556L4.66667 21.7778Z" fill="#FF9E00"/>
</svg>
