<svg width="24" height="24" viewBox="0 0 24 24" fill="none" xmlns="http://www.w3.org/2000/svg">
<g id="Icone / Gear">
<path id="Vector" d="M12 7.50004C11.11 7.50004 10.24 7.76396 9.49995 8.25843C8.75993 8.7529 8.18315 9.4557 7.84256 10.278C7.50196 11.1002 7.41285 12.005 7.58648 12.8779C7.76011 13.7509 8.1887 14.5527 8.81803 15.182C9.44737 15.8114 10.2492 16.2399 11.1221 16.4136C11.995 16.5872 12.8998 16.4981 13.7221 16.1575C14.5444 15.8169 15.2472 15.2401 15.7416 14.5001C16.2361 13.7601 16.5 12.8901 16.5 12C16.4988 10.807 16.0243 9.66308 15.1806 8.81943C14.337 7.97579 13.1931 7.50128 12 7.50004ZM12 15C11.4067 15 10.8267 14.8241 10.3333 14.4945C9.83996 14.1648 9.45544 13.6963 9.22837 13.1481C9.00131 12.5999 8.9419 11.9967 9.05766 11.4148C9.17341 10.8328 9.45914 10.2983 9.87869 9.87872C10.2983 9.45917 10.8328 9.17344 11.4147 9.05769C11.9967 8.94193 12.5999 9.00134 13.1481 9.2284C13.6962 9.45547 14.1648 9.83999 14.4944 10.3333C14.8241 10.8267 15 11.4067 15 12C15 12.7957 14.6839 13.5588 14.1213 14.1214C13.5587 14.684 12.7957 15 12 15ZM20.25 12.2025C20.2538 12.0675 20.2538 11.9325 20.25 11.7975L21.6488 10.05C21.7221 9.95829 21.7729 9.8506 21.797 9.73563C21.8211 9.62067 21.8178 9.50165 21.7875 9.38817C21.5582 8.52623 21.2152 7.69865 20.7675 6.92723C20.7089 6.82628 20.6275 6.7404 20.5299 6.67644C20.4322 6.61248 20.321 6.57219 20.205 6.55879L17.9813 6.31129C17.8888 6.21379 17.795 6.12004 17.7 6.03004L17.4375 3.80067C17.424 3.68462 17.3836 3.57333 17.3195 3.47567C17.2553 3.37801 17.1693 3.29668 17.0681 3.23817C16.2964 2.79131 15.4689 2.44864 14.6072 2.21911C14.4936 2.18891 14.3746 2.18583 14.2596 2.21009C14.1447 2.23435 14.037 2.28529 13.9453 2.35879L12.2025 3.75004C12.0675 3.75004 11.9325 3.75004 11.7975 3.75004L10.05 2.35411C9.95826 2.28076 9.85056 2.23 9.7356 2.2059C9.62064 2.1818 9.50162 2.18504 9.38814 2.21536C8.52634 2.44507 7.69881 2.78806 6.9272 3.23536C6.82625 3.29397 6.74037 3.37535 6.67641 3.473C6.61245 3.57065 6.57216 3.68189 6.55876 3.79786L6.31126 6.02536C6.21376 6.11848 6.12001 6.21223 6.03001 6.30661L3.80064 6.56254C3.68459 6.57605 3.57329 6.61647 3.47563 6.6806C3.37797 6.74473 3.29665 6.83079 3.23814 6.93192C2.79128 7.70363 2.44861 8.53114 2.21907 9.39286C2.18888 9.50641 2.1858 9.62547 2.21006 9.74044C2.23432 9.8554 2.28526 9.96306 2.35876 10.0547L3.75001 11.7975C3.75001 11.9325 3.75001 12.0675 3.75001 12.2025L2.35407 13.95C2.28073 14.0418 2.22997 14.1495 2.20587 14.2645C2.18177 14.3794 2.18501 14.4984 2.21532 14.6119C2.44463 15.4739 2.78764 16.3014 3.23532 17.0729C3.29394 17.1738 3.37532 17.2597 3.47297 17.3236C3.57062 17.3876 3.68186 17.4279 3.79782 17.4413L6.02158 17.6888C6.1147 17.7863 6.20845 17.88 6.30283 17.97L6.56251 20.1994C6.57601 20.3155 6.61644 20.4268 6.68057 20.5244C6.7447 20.6221 6.83076 20.7034 6.93189 20.7619C7.7036 21.2088 8.53111 21.5515 9.39283 21.781C9.50638 21.8112 9.62544 21.8143 9.74041 21.79C9.85537 21.7657 9.96303 21.7148 10.0547 21.6413L11.7975 20.25C11.9325 20.2538 12.0675 20.2538 12.2025 20.25L13.95 21.6488C14.0418 21.7221 14.1495 21.7729 14.2644 21.797C14.3794 21.8211 14.4984 21.8179 14.6119 21.7875C15.4738 21.5582 16.3014 21.2152 17.0728 20.7675C17.1738 20.7089 17.2597 20.6276 17.3236 20.5299C17.3876 20.4322 17.4279 20.321 17.4413 20.205L17.6888 17.9813C17.7863 17.8888 17.88 17.795 17.97 17.7L20.1994 17.4375C20.3154 17.424 20.4267 17.3836 20.5244 17.3195C20.6221 17.2554 20.7034 17.1693 20.7619 17.0682C21.2088 16.2965 21.5514 15.4689 21.781 14.6072C21.8111 14.4937 21.8142 14.3746 21.79 14.2597C21.7657 14.1447 21.7148 14.037 21.6413 13.9454L20.25 12.2025ZM18.7406 11.5932C18.7566 11.8642 18.7566 12.1359 18.7406 12.4069C18.7295 12.5925 18.7876 12.7756 18.9038 12.9207L20.2341 14.5829C20.0814 15.068 19.886 15.5386 19.65 15.9891L17.5313 16.2291C17.3467 16.2496 17.1764 16.3378 17.0531 16.4766C16.8727 16.6796 16.6805 16.8718 16.4775 17.0522C16.3387 17.1755 16.2505 17.3458 16.23 17.5304L15.9947 19.6472C15.5442 19.8833 15.0736 20.0788 14.5885 20.2313L12.9253 18.901C12.7922 18.7946 12.6269 18.7368 12.4566 18.7369H12.4116C12.1406 18.7529 11.8688 18.7529 11.5978 18.7369C11.4123 18.7257 11.2292 18.7839 11.0841 18.9L9.4172 20.2313C8.93208 20.0786 8.46147 19.8832 8.01095 19.6472L7.77095 17.5313C7.75047 17.3468 7.66228 17.1764 7.52345 17.0532C7.32049 16.8727 7.12828 16.6805 6.94783 16.4775C6.82457 16.3387 6.65421 16.2505 6.4697 16.23L4.35282 15.9938C4.11675 15.5433 3.92129 15.0727 3.76876 14.5875L5.09907 12.9244C5.21524 12.7793 5.27337 12.5962 5.2622 12.4107C5.24626 12.1397 5.24626 11.8679 5.2622 11.5969C5.27337 11.4114 5.21524 11.2283 5.09907 11.0832L3.76876 9.41723C3.92141 8.93211 4.11687 8.4615 4.35282 8.01098L6.46876 7.77098C6.65328 7.7505 6.82364 7.66231 6.94689 7.52348C7.12735 7.32052 7.31955 7.12832 7.52251 6.94786C7.6619 6.82452 7.75045 6.65377 7.77095 6.46879L8.00626 4.35286C8.45673 4.11679 8.92735 3.92132 9.41251 3.76879L11.0756 5.09911C11.2208 5.21527 11.4038 5.2734 11.5894 5.26223C11.8604 5.24629 12.1321 5.24629 12.4031 5.26223C12.5887 5.2734 12.7718 5.21527 12.9169 5.09911L14.5828 3.76879C15.068 3.92144 15.5386 4.1169 15.9891 4.35286L16.2291 6.46879C16.2496 6.65331 16.3377 6.82367 16.4766 6.94692C16.6795 7.12738 16.8717 7.31958 17.0522 7.52254C17.1755 7.66138 17.3458 7.74956 17.5303 7.77004L19.6472 8.00536C19.8833 8.45583 20.0787 8.92644 20.2313 9.41161L18.901 11.0747C18.7837 11.2211 18.7255 11.406 18.7378 11.5932H18.7406Z" fill="#5A189A"/>
</g>
</svg>
