<svg width="25" height="27" viewBox="0 0 25 27" fill="none" xmlns="http://www.w3.org/2000/svg">
<g id="&#240;&#159;&#166;&#134; icon &#34;Home&#34;">
<path id="Vector" d="M11.2079 1.5252C11.9486 0.824934 13.1072 0.824934 13.8479 1.5252L23.1538 10.3236C23.7296 10.868 24.0558 11.6254 24.0558 12.4177V23.118C24.0558 24.7096 22.7655 26 21.1738 26H17.3312C15.7395 26 14.4492 24.7096 14.4492 23.118V18.3147C14.4492 17.7842 14.0191 17.3541 13.4886 17.3541H11.5672C11.0367 17.3541 10.6066 17.7842 10.6066 18.3147V23.118C10.6066 24.7096 9.31629 26 7.72461 26H3.88198C2.2903 26 1 24.7096 1 23.118V12.4177C1 11.6254 1.32624 10.868 1.90202 10.3236L11.2079 1.5252ZM12.5279 2.92132L3.22198 11.7197C3.03006 11.9011 2.92132 12.1536 2.92132 12.4177V23.118C2.92132 23.6485 3.35142 24.0787 3.88198 24.0787H7.72461C8.25516 24.0787 8.68527 23.6485 8.68527 23.118V18.3147C8.68527 16.7231 9.97557 15.4328 11.5672 15.4328H13.4886C15.0802 15.4328 16.3705 16.7231 16.3705 18.3147V23.118C16.3705 23.6485 16.8007 24.0787 17.3312 24.0787H21.1738C21.7043 24.0787 22.1345 23.6485 22.1345 23.118V12.4177C22.1345 12.1536 22.0257 11.9011 21.8338 11.7197L12.5279 2.92132Z" fill="white" stroke="white" stroke-width="1.5"/>
</g>
</svg>
