<svg width="34" height="24" viewBox="0 0 34 24" fill="none" xmlns="http://www.w3.org/2000/svg">
<g id="&#240;&#159;&#166;&#134; icon &#34;Money&#34;">
<g id="Group">
<path id="Vector" d="M19.2001 9.60005C19.2001 12.251 17.0511 14.4 14.4001 14.4C11.7491 14.4 9.6001 12.251 9.6001 9.60005C9.6001 6.94908 11.7491 4.80005 14.4001 4.80005C17.0511 4.80005 19.2001 6.94908 19.2001 9.60005ZM16.8001 9.60005C16.8001 8.27458 15.7256 7.20005 14.4001 7.20005C13.0746 7.20005 12.0001 8.27458 12.0001 9.60005C12.0001 10.9255 13.0746 12 14.4001 12C15.7256 12 16.8001 10.9255 16.8001 9.60005Z" fill="white"/>
<path id="Vector_2" d="M0 3C0 1.34314 1.34314 0 3 0H25.8C27.457 0 28.8 1.34314 28.8 3V16.2C28.8 17.857 27.457 19.2 25.8 19.2H3C1.34314 19.2 0 17.857 0 16.2V3ZM3 2.4C2.66863 2.4 2.4 2.66863 2.4 3V4.8H3.6C4.26274 4.8 4.8 4.26274 4.8 3.6V2.4H3ZM2.4 16.2C2.4 16.5314 2.66863 16.8 3 16.8H4.8V15.6C4.8 14.9373 4.26274 14.4 3.6 14.4H2.4V16.2ZM7.2 15.6V16.8H21.6V15.6C21.6 13.6118 23.2118 12 25.2 12H26.4V7.2H25.2C23.2118 7.2 21.6 5.58823 21.6 3.6V2.4H7.2V3.6C7.2 5.58823 5.58823 7.2 3.6 7.2H2.4V12H3.6C5.58823 12 7.2 13.6118 7.2 15.6ZM24 16.8H25.8C26.1314 16.8 26.4 16.5314 26.4 16.2V14.4H25.2C24.5374 14.4 24 14.9373 24 15.6V16.8ZM26.4 4.8V3C26.4 2.66863 26.1314 2.4 25.8 2.4H24V3.6C24 4.26274 24.5374 4.8 25.2 4.8H26.4Z" fill="white"/>
<path id="Vector_3" d="M8.40005 24C6.80021 24 5.44411 22.9565 4.97534 21.5129C5.30834 21.5703 5.6507 21.6 6.00005 21.6H25.8C28.7823 21.6 31.2 19.1823 31.2 16.2V5.00488C32.5983 5.49909 33.6 6.83258 33.6 8.40004V16.2C33.6 20.5078 30.1078 24 25.8 24H8.40005Z" fill="white"/>
</g>
</g>
</svg>
