<svg width="26" height="26" viewBox="0 0 26 26" fill="none" xmlns="http://www.w3.org/2000/svg">
<path d="M23.7251 20.3162L23.4795 20.0995C22.7829 19.4788 22.1732 18.767 21.6668 17.9834C21.1137 16.9019 20.7822 15.7208 20.6918 14.5095V10.9417C20.6966 9.03909 20.0064 7.20021 18.751 5.77057C17.4955 4.34093 15.7613 3.41894 13.874 3.17782V2.24615C13.874 1.99044 13.7724 1.7452 13.5916 1.56438C13.4108 1.38356 13.1655 1.28198 12.9098 1.28198C12.6541 1.28198 12.4089 1.38356 12.2281 1.56438C12.0472 1.7452 11.9457 1.99044 11.9457 2.24615V3.19226C10.0753 3.45076 8.36197 4.37833 7.12304 5.80317C5.88411 7.22801 5.20352 9.05356 5.20733 10.9417V14.5095C5.11687 15.7208 4.78539 16.9019 4.23233 17.9834C3.73463 18.7651 3.13469 19.4767 2.44844 20.0995L2.20288 20.3162V22.3528H23.7251V20.3162Z" fill="#FF9E00"/>
<path d="M11.0645 23.1111C11.1278 23.5689 11.3546 23.9883 11.7031 24.2919C12.0516 24.5955 12.4981 24.7627 12.9603 24.7627C13.4224 24.7627 13.869 24.5955 14.2175 24.2919C14.5659 23.9883 14.7928 23.5689 14.8561 23.1111H11.0645Z" fill="#FF9E00"/>
</svg>
