<svg width="40" height="42" viewBox="0 0 40 42" fill="none" xmlns="http://www.w3.org/2000/svg">
<g id="Group 21">
<circle id="Ellipse 8" cx="20" cy="22" r="20" fill="#240046"/>
<g id="Icone sininho">
<path id="Vector" d="M30.7251 29.3162L30.4795 29.0995C29.7829 28.4788 29.1732 27.767 28.6668 26.9834C28.1137 25.9019 27.7822 24.7208 27.6918 23.5095V19.9417C27.6966 18.0391 27.0064 16.2002 25.751 14.7706C24.4955 13.3409 22.7613 12.4189 20.874 12.1778V11.2461C20.874 10.9904 20.7724 10.7452 20.5916 10.5644C20.4108 10.3836 20.1655 10.282 19.9098 10.282C19.6541 10.282 19.4089 10.3836 19.2281 10.5644C19.0472 10.7452 18.9457 10.9904 18.9457 11.2461V12.1923C17.0753 12.4508 15.362 13.3783 14.123 14.8032C12.8841 16.228 12.2035 18.0536 12.2073 19.9417V23.5095C12.1169 24.7208 11.7854 25.9019 11.2323 26.9834C10.7346 27.7651 10.1347 28.4767 9.44844 29.0995L9.20288 29.3162V31.3528H30.7251V29.3162Z" fill="#FF9E00"/>
<path id="Vector_2" d="M18.0645 32.1111C18.1278 32.5689 18.3546 32.9883 18.7031 33.2919C19.0516 33.5955 19.4981 33.7627 19.9603 33.7627C20.4224 33.7627 20.869 33.5955 21.2175 33.2919C21.5659 32.9883 21.7928 32.5689 21.8561 32.1111H18.0645Z" fill="#FF9E00"/>
</g>
<circle id="Ellipse 15" cx="33" cy="6" r="5.5" fill="#FF0E0E" stroke="#303341"/>
</g>
</svg>
