<svg width="28" height="28" viewBox="0 0 28 28" fill="none" xmlns="http://www.w3.org/2000/svg">
<g id="icone pessoas">
<path id="Vector" d="M8.3125 14C10.4871 14 12.25 12.2371 12.25 10.0625C12.25 7.88788 10.4871 6.125 8.3125 6.125C6.13788 6.125 4.375 7.88788 4.375 10.0625C4.375 12.2371 6.13788 14 8.3125 14Z" fill="#FF9E00"/>
<path id="Vector_2" d="M12.7969 16.1875C11.2569 15.4055 9.55719 15.0938 8.3125 15.0938C5.87453 15.0938 0.875 16.5889 0.875 19.5781V21.875H9.07812V20.9962C9.07812 19.9571 9.51562 18.9153 10.2812 18.0469C10.8921 17.3534 11.7474 16.7098 12.7969 16.1875Z" fill="#FF9E00"/>
<path id="Vector_3" d="M18.5938 15.75C15.7462 15.75 10.0625 17.5087 10.0625 21V23.625H27.125V21C27.125 17.5087 21.4413 15.75 18.5938 15.75Z" fill="#FF9E00"/>
<path id="Vector_4" d="M18.5938 14C21.2516 14 23.4062 11.8454 23.4062 9.1875C23.4062 6.52963 21.2516 4.375 18.5938 4.375C15.9359 4.375 13.7812 6.52963 13.7812 9.1875C13.7812 11.8454 15.9359 14 18.5938 14Z" fill="#FF9E00"/>
</g>
</svg>
