<svg width="24" height="24" viewBox="0 0 24 24" fill="none" xmlns="http://www.w3.org/2000/svg">
<g id="&#240;&#159;&#166;&#134; icon &#34;People Community&#34;">
<g id="Group">
<path id="Vector" d="M3.42847 3.42857C3.42847 1.53502 4.96349 0 6.85704 0C8.75059 0 10.2856 1.53502 10.2856 3.42857C10.2856 4.53387 9.76258 5.51702 8.95052 6.144C8.9261 6.16202 8.90182 6.18026 8.87772 6.19869C8.31108 6.61274 7.61259 6.85714 6.85704 6.85714C4.96349 6.85714 3.42847 5.32212 3.42847 3.42857Z" fill="white"/>
<path id="Vector_2" d="M15.0494 6.144C15.0739 6.16202 15.0981 6.18026 15.1222 6.1987C15.6889 6.61275 16.3874 6.85714 17.1429 6.85714C19.0365 6.85714 20.5715 5.32212 20.5715 3.42857C20.5715 1.53502 19.0365 0 17.1429 0C15.2494 0 13.7144 1.53502 13.7144 3.42857C13.7144 4.53387 14.2374 5.51702 15.0494 6.144Z" fill="white"/>
<path id="Vector_3" d="M9.03021 8.57146C9.62302 7.54666 10.7311 6.85718 12.0001 6.85718C13.2692 6.85718 14.3772 7.54666 14.97 8.57146C15.2617 9.07575 15.4287 9.66125 15.4287 10.2857C15.4287 12.1793 13.8937 13.7143 12.0001 13.7143C10.1066 13.7143 8.57153 12.1793 8.57153 10.2857C8.57153 9.66125 8.73849 9.07575 9.03021 8.57146Z" fill="white"/>
<path id="Vector_4" d="M2.57139 8.57153H7.14979C6.96026 9.10773 6.85714 9.68472 6.85714 10.2858C6.85714 11.603 7.35231 12.8045 8.16667 13.7144H7.71425C5.85401 13.7144 4.27063 14.8996 3.67795 16.556C3.09516 16.3189 2.55597 16.0091 2.07797 15.6255C0.786806 14.5891 0 13.0562 0 11.143C0 9.72286 1.15125 8.57153 2.57139 8.57153Z" fill="white"/>
<path id="Vector_5" d="M16.2857 13.7144C18.1458 13.7144 19.7293 14.8996 20.3219 16.556C20.9048 16.3189 21.4439 16.0091 21.9221 15.6255C23.2131 14.5891 23.9999 13.0562 23.9999 11.143C23.9999 9.7228 22.8486 8.57153 21.4285 8.57153H16.8502C17.0396 9.10773 17.1428 9.68472 17.1428 10.2858C17.1428 11.603 16.6475 12.8045 15.8333 13.7144H16.2857Z" fill="white"/>
<path id="Vector_6" d="M18.6636 17.0193C18.7882 17.3216 18.8571 17.6528 18.8571 17.9999C18.8571 19.9132 18.0703 21.4461 16.7792 22.4824C15.5084 23.5024 13.8052 23.9999 12 23.9999C10.1947 23.9999 8.49154 23.5024 7.22079 22.4824C5.92963 21.4461 5.14282 19.9132 5.14282 17.9999C5.14282 17.6528 5.21165 17.3216 5.3364 17.0193C5.72187 16.0856 6.6413 15.4285 7.71422 15.4285H16.2857C17.3587 15.4285 18.278 16.0856 18.6636 17.0193Z" fill="white"/>
</g>
</g>
</svg>
