<svg width="24" height="24" viewBox="0 0 24 24" fill="none" xmlns="http://www.w3.org/2000/svg">
<g id="&#240;&#159;&#166;&#134; icon &#34;People Community&#34;">
<g id="Group">
<path id="Vector" d="M3.42859 3.42857C3.42859 1.53502 4.96361 0 6.85716 0C8.75071 0 10.2857 1.53502 10.2857 3.42857C10.2857 4.53387 9.7627 5.51702 8.95065 6.144C8.92622 6.16202 8.90194 6.18026 8.87784 6.19869C8.3112 6.61274 7.61271 6.85714 6.85716 6.85714C4.96361 6.85714 3.42859 5.32212 3.42859 3.42857Z" fill="#FF8500"/>
<path id="Vector_2" d="M15.0494 6.144C15.0738 6.16202 15.0981 6.18026 15.1222 6.1987C15.6888 6.61275 16.3874 6.85714 17.1429 6.85714C19.0365 6.85714 20.5714 5.32212 20.5714 3.42857C20.5714 1.53502 19.0365 0 17.1429 0C15.2493 0 13.7143 1.53502 13.7143 3.42857C13.7143 4.53387 14.2373 5.51702 15.0494 6.144Z" fill="#FF8500"/>
<path id="Vector_3" d="M9.03009 8.57146C9.6229 7.54666 10.7309 6.85718 12 6.85718C13.269 6.85718 14.3771 7.54666 14.9699 8.57146C15.2616 9.07575 15.4286 9.66125 15.4286 10.2857C15.4286 12.1793 13.8935 13.7143 12 13.7143C10.1064 13.7143 8.57141 12.1793 8.57141 10.2857C8.57141 9.66125 8.73837 9.07575 9.03009 8.57146Z" fill="#FF8500"/>
<path id="Vector_4" d="M2.57139 8.57153H7.14979C6.96026 9.10773 6.85714 9.68472 6.85714 10.2858C6.85714 11.603 7.35231 12.8045 8.16667 13.7144H7.71425C5.85401 13.7144 4.27063 14.8996 3.67795 16.556C3.09516 16.3189 2.55597 16.0091 2.07797 15.6255C0.786806 14.5891 0 13.0562 0 11.143C0 9.72286 1.15125 8.57153 2.57139 8.57153Z" fill="#FF8500"/>
<path id="Vector_5" d="M16.2857 13.7144C18.1459 13.7144 19.7294 14.8996 20.322 16.556C20.9049 16.3189 21.444 16.0091 21.9221 15.6255C23.2131 14.5891 24 13.0562 24 11.143C24 9.7228 22.8487 8.57153 21.4286 8.57153H16.8502C17.0397 9.10773 17.1429 9.68472 17.1429 10.2858C17.1429 11.603 16.6476 12.8045 15.8333 13.7144H16.2857Z" fill="#FF8500"/>
<path id="Vector_6" d="M18.6636 17.0193C18.7883 17.3216 18.8572 17.6528 18.8572 17.9999C18.8572 19.9132 18.0703 21.4461 16.7793 22.4824C15.5085 23.5024 13.8053 23.9999 12 23.9999C10.1947 23.9999 8.4916 23.5024 7.22085 22.4824C5.92969 21.4461 5.14288 19.9132 5.14288 17.9999C5.14288 17.6528 5.21171 17.3216 5.33646 17.0193C5.72193 16.0856 6.64136 15.4285 7.71428 15.4285H16.2857C17.3587 15.4285 18.2781 16.0856 18.6636 17.0193Z" fill="#FF8500"/>
</g>
</g>
</svg>
