<svg width="28" height="28" viewBox="0 0 28 28" fill="none" xmlns="http://www.w3.org/2000/svg">
<path id="Vector" d="M24.5 10.5H17.5V3.5C17.5 2.57174 17.1313 1.6815 16.4749 1.02513C15.8185 0.368749 14.9283 0 14 0C13.0717 0 12.1815 0.368749 11.5251 1.02513C10.8687 1.6815 10.5 2.57174 10.5 3.5L10.6243 10.5H3.5C2.57174 10.5 1.6815 10.8687 1.02513 11.5251C0.368749 12.1815 0 13.0717 0 14C0 14.9283 0.368749 15.8185 1.02513 16.4749C1.6815 17.1313 2.57174 17.5 3.5 17.5L10.6243 17.3757L10.5 24.5C10.5 25.4283 10.8687 26.3185 11.5251 26.9749C12.1815 27.6313 13.0717 28 14 28C14.9283 28 15.8185 27.6313 16.4749 26.9749C17.1313 26.3185 17.5 25.4283 17.5 24.5V17.3757L24.5 17.5C25.4283 17.5 26.3185 17.1313 26.9749 16.4749C27.6313 15.8185 28 14.9283 28 14C28 13.0717 27.6313 12.1815 26.9749 11.5251C26.3185 10.8687 25.4283 10.5 24.5 10.5Z" fill="#FF6D00"/>
</svg>
