<svg width="30" height="30" viewBox="0 0 30 30" fill="none" xmlns="http://www.w3.org/2000/svg">
<path d="M26.1375 11.2874H18.7125V3.8624C18.7125 2.87779 18.3214 1.9335 17.6252 1.23727C16.9289 0.541039 15.9846 0.149902 15 0.149902C14.0154 0.149902 13.0711 0.541039 12.3749 1.23727C11.6787 1.9335 11.2875 2.87779 11.2875 3.8624L11.4193 11.2874H3.86252C2.87791 11.2874 1.93362 11.6785 1.23739 12.3748C0.541162 13.071 0.150024 14.0153 0.150024 14.9999C0.150024 15.9845 0.541162 16.9288 1.23739 17.625C1.93362 18.3213 2.87791 18.7124 3.86252 18.7124L11.4193 18.5806L11.2875 26.1374C11.2875 27.122 11.6787 28.0663 12.3749 28.7625C13.0711 29.4588 14.0154 29.8499 15 29.8499C15.9846 29.8499 16.9289 29.4588 17.6252 28.7625C18.3214 28.0663 18.7125 27.122 18.7125 26.1374V18.5806L26.1375 18.7124C27.1221 18.7124 28.0664 18.3213 28.7627 17.625C29.4589 16.9288 29.85 15.9845 29.85 14.9999C29.85 14.0153 29.4589 13.071 28.7627 12.3748C28.0664 11.6785 27.1221 11.2874 26.1375 11.2874Z" fill="#FF9E00"/>
</svg>
