<svg width="30" height="30" viewBox="0 0 30 30" fill="none" xmlns="http://www.w3.org/2000/svg">
<g id="icone tarefas">
<g id="Group">
<path id="Vector" fill-rule="evenodd" clip-rule="evenodd" d="M9.27 3.75C8.92588 4.53848 8.74883 5.3897 8.75 6.25C8.75 6.91305 9.01339 7.54893 9.48223 8.01777C9.95107 8.48661 10.587 8.75 11.25 8.75H18.75C19.413 8.75 20.0489 8.48661 20.5178 8.01777C20.9866 7.54893 21.25 6.91305 21.25 6.25C21.25 5.36125 21.065 4.515 20.73 3.75H22.5C23.163 3.75 23.7989 4.0134 24.2678 4.48224C24.7366 4.95108 25 5.58696 25 6.25V25C25 25.663 24.7366 26.2989 24.2678 26.7678C23.7989 27.2366 23.163 27.5 22.5 27.5H7.5C6.83696 27.5 6.20107 27.2366 5.73223 26.7678C5.26339 26.2989 5 25.663 5 25V6.25C5 5.58696 5.26339 4.95108 5.73223 4.48224C6.20107 4.0134 6.83696 3.75 7.5 3.75H9.27ZM15 17.5H11.25C10.9185 17.5 10.6005 17.6317 10.3661 17.8661C10.1317 18.1005 10 18.4185 10 18.75C10 19.0815 10.1317 19.3995 10.3661 19.6339C10.6005 19.8683 10.9185 20 11.25 20H15C15.3315 20 15.6495 19.8683 15.8839 19.6339C16.1183 19.3995 16.25 19.0815 16.25 18.75C16.25 18.4185 16.1183 18.1005 15.8839 17.8661C15.6495 17.6317 15.3315 17.5 15 17.5ZM18.75 12.5H11.25C10.9314 12.5004 10.625 12.6224 10.3933 12.8411C10.1616 13.0598 10.0222 13.3587 10.0035 13.6767C9.98486 13.9948 10.0883 14.308 10.2928 14.5523C10.4973 14.7966 10.7874 14.9536 11.1038 14.9913L11.25 15H18.75C19.0815 15 19.3995 14.8683 19.6339 14.6339C19.8683 14.3995 20 14.0815 20 13.75C20 13.4185 19.8683 13.1005 19.6339 12.8661C19.3995 12.6317 19.0815 12.5 18.75 12.5ZM15 2.5C15.5277 2.49923 16.0496 2.61021 16.5314 2.82566C17.0131 3.04111 17.4438 3.35614 17.795 3.75C18.33 4.3475 18.675 5.11625 18.7388 5.965L18.75 6.25H11.25C11.25 5.34375 11.5713 4.5125 12.1063 3.865L12.205 3.75C12.8925 2.9825 13.89 2.5 15 2.5Z" fill="#5A189A"/>
</g>
</g>
</svg>
