<svg width="25" height="24" viewBox="0 0 25 24" fill="none" xmlns="http://www.w3.org/2000/svg">
<g id="Seta avan&#195;&#167;ar onboard 1">
<path id="Vector" d="M3.18818 11.9682C3.19512 12.3525 3.3587 12.7182 3.64293 12.9849C3.92716 13.2516 4.30877 13.3974 4.7038 13.3903L16.5003 13.1773L12.6567 17.0539C12.3986 17.3334 12.2619 17.6992 12.2755 18.0745C12.2891 18.4498 12.4518 18.8051 12.7295 19.0657C13.0072 19.3262 13.3781 19.4716 13.7641 19.4713C14.1501 19.471 14.521 19.3249 14.7988 19.0638L21.1398 12.6684C21.4138 12.3917 21.5638 12.0206 21.5569 11.6366C21.55 11.2527 21.3866 10.8872 21.1028 10.6206L14.5351 4.45815C14.3962 4.31826 14.2297 4.20704 14.0456 4.13114C13.8614 4.05525 13.6634 4.01622 13.4634 4.0164C13.2633 4.01658 13.0653 4.05595 12.8812 4.13217C12.697 4.2084 12.5305 4.31991 12.3916 4.46005C12.2526 4.6002 12.1441 4.76611 12.0724 4.94788C12.0008 5.12966 11.9675 5.32357 11.9745 5.51806C11.9815 5.71255 12.0288 5.90363 12.1134 6.0799C12.198 6.25618 12.3183 6.41402 12.467 6.54404L16.448 10.2794L4.65149 10.4923C3.82931 10.5072 3.17375 11.1683 3.18818 11.9682Z" fill="#240046"/>
</g>
</svg>
